<?xml version="1.0" standalone="no"?><!DOCTYPE svg PUBLIC "-//W3C//DTD SVG 1.1//EN" "http://www.w3.org/Graphics/SVG/1.1/DTD/svg11.dtd"><svg t="1600930317609" class="icon" viewBox="0 0 1024 1024" version="1.1" xmlns="http://www.w3.org/2000/svg" p-id="7292" xmlns:xlink="http://www.w3.org/1999/xlink" width="200" height="200"><defs><style type="text/css"></style></defs><path d="M73.142857 146.285714v804.571429h877.714286V146.285714H73.142857zM0 73.142857h1024v950.857143H0V73.142857z m73.142857 219.428572h877.714286v73.142857H73.142857V292.571429z m146.285714-292.571429h73.142858v219.428571H219.428571V0z m512 0h73.142858v219.428571h-73.142858V0zM219.428571 512h146.285715v73.142857H219.428571V512z m219.428572 0h146.285714v73.142857H438.857143V512z m219.428571 0h146.285715v73.142857H658.285714V512z m-438.857143 219.428571h146.285715v73.142858H219.428571v-73.142858z m219.428572 0h146.285714v73.142858H438.857143v-73.142858z m219.428571 0h146.285715v73.142858H658.285714v-73.142858z" p-id="7293"></path></svg>