<?xml version="1.0" standalone="no"?><!DOCTYPE svg PUBLIC "-//W3C//DTD SVG 1.1//EN" "http://www.w3.org/Graphics/SVG/1.1/DTD/svg11.dtd"><svg t="1600919975106" class="icon" viewBox="0 0 4031 1024" version="1.1" xmlns="http://www.w3.org/2000/svg" p-id="6379" xmlns:xlink="http://www.w3.org/1999/xlink" width="787.3046875" height="200"><defs><style type="text/css"></style></defs><path d="M2585.088621 1023.610153h-12.475111a124.751111 124.751111 0 0 1-88.885167-51.459833c-177.770333-249.112374-392.186304-531.751609-506.801387-662.740276L1380.070861 980.726958a120.462791 120.462791 0 0 1-97.461805 41.713653 124.751111 124.751111 0 0 1-94.343028-47.951208 8869.414125 8869.414125 0 0 0-303.690985-372.304096l-229.620013 220.26368a124.361264 124.361264 0 0 1-86.156236 34.696402H125.152656a124.751111 124.751111 0 0 1-124.361263-124.361263 124.751111 124.751111 0 0 1 124.361263-124.361264h393.745694l264.316415-253.79054a125.920652 125.920652 0 0 1 58.087236-42.1035c81.088222-28.069 112.665847-38.984722 451.832929 389.847221l553.193207-623.755554a129.429277 129.429277 0 0 1 77.969444-66.663875c87.325778-28.458847 141.904388-46.001972 678.334165 695.487443l392.576151-366.456388a124.361264 124.361264 0 0 1 168.024153 0l297.843276 266.265652h421.034999a124.751111 124.751111 0 0 1 124.361264 124.361263 124.751111 124.751111 0 0 1-124.361264 124.361264h-467.816665a125.140958 125.140958 0 0 1-83.037458-31.577625l-248.33268-222.212916-412.848207 385.169054a124.361264 124.361264 0 0 1-84.986694 36.255792z" p-id="6380"></path></svg>