<?xml version="1.0" standalone="no"?><!DOCTYPE svg PUBLIC "-//W3C//DTD SVG 1.1//EN" "http://www.w3.org/Graphics/SVG/1.1/DTD/svg11.dtd"><svg t="1600773226160" class="icon" viewBox="0 0 1024 1024" version="1.1" xmlns="http://www.w3.org/2000/svg" p-id="1671" xmlns:xlink="http://www.w3.org/1999/xlink" width="200" height="200"><defs><style type="text/css"></style></defs><path d="M1018.8 622.2c-18.4-45.2-40.4-83.8-63.8-111.5-26.5-31.4-54-48.6-81.7-51.1-35.5-3.2-67.8 17.6-95.9 61.8-31.9 50.2-58.6 71-89.3 69.4-18-0.9-63.7-28.5-93.1-90.7-3.6-7.6-7.2-18.5-10.9-30.1-7.1-22-16.1-49.6-31.1-71.3-18-26-41.9-39.2-71.1-39.2-21.5 0-41.7 13.5-61.8 41.3-16.3 22.6-31.3 52.5-45.7 81.5-24.9 49.9-53.2 106.5-83.6 109.9-14.6 1.6-30.8-8.6-49.5-31.3-36.6-44.6-65.6-63.2-91.1-58.5-22.7 4.2-39.8 25.5-53.9 67.2-13.8 36.3-31.3 59.7-50.9 67.6-14.7 6-25.4 1.3-25.9 1.1l-6.6-3-10.5 21.9 6.6 3.1c0.9 0.4 9.2 4.2 21.5 4.2 8 0 15.9-1.6 23.6-4.6 26.5-10.6 48.4-38.2 64.9-81.9l0.1-0.4c10.7-31.7 22.6-49 35.3-51.3 15.5-2.8 38.3 14 67.9 50 24.3 29.6 47.5 42.7 71 40 43.5-4.9 72.3-62.4 102.7-123.2 25.6-51.3 54.6-109.3 85.8-109.3 48.7 0 64.9 49.9 79.2 93.9 4 12.3 7.8 23.9 12 32.9 18.5 39.3 41.8 63.7 58 77.3 19.7 16.5 40 26.4 55.8 27.3 20.3 1.1 38.9-4.7 56.8-17.7 17.8-12.9 35.6-33.5 54.3-62.9 22.8-35.9 47.4-52.9 73.2-50.6 20.3 1.8 42.3 16 63.9 40.9 22.3 25.8 43.5 62.7 61.3 106.7l2.7 6.8 22.5-9.1-2.7-7.1z" fill="#CC5E5E" p-id="1672"></path></svg>